<?xml version="1.0" encoding="UTF-8"?>
<svg xmlns="http://www.w3.org/2000/svg" version="1.1" viewBox="0 0 2500 846.8">
  <defs>
    <style>
      .cls-1 {
        fill: #2d509f;
        fill-rule: evenodd;
      }
    </style>
  </defs>
  <!-- Generator: Adobe Illustrator 28.7.4, SVG Export Plug-In . SVG Version: 1.2.0 Build 166)  -->
  <g>
    <g id="Layer_1">
      <g>
        <path class="cls-1" d="M1505.6,261.1h-300.5v98h100.5v209.7h98v-209.7h102.1v-98h0ZM1799.3,568l-94.7-306.9h-119.3l-94.7,306.9h98l56.3-218.2,56.4,218.2h98ZM2099.3,261.1h-300.5v98h100.5v209.7h98v-209.7h102.1v-98ZM2389.7,568l-94.7-306.9h-119.2l-94.7,306.9h98l56.3-218.2,56.3,218.2h98,0ZM474.3,590.2c21.3-90.7,37.2-179.2,37.2-179.2,0,0,8-29.2-8-49.1-15.9-19.9-65-13.3-65-13.3,0,0-76.3.9-154,10.3-69.2,8.4-139.9,22.1-165.9,27.4-5.4,18.6-8.2,37.9-8.3,57.3,0,136.6,136.5,252.6,326.1,294,9.9-36.2,24.9-92.1,37.9-147.3h0Z"/>
        <path class="cls-1" d="M615.2,533.1c-.9-109.9,2.2-212.4,2.2-212.4,0,0-3.5-15.4,6.3-23,10.1-7.7,33.5-7.5,33.5-7.5,0,0,90.9,2.6,192.7,15.6,74.3,9.6,154.7,24.9,191,32.1-66.7-119.4-243.5-204.8-451.1-204.8s-385.7,86-451.8,206.2c31.8-6.4,118.3-23.3,198-33.5,101.8-13.1,192.7-15.6,192.7-15.6,0,0,23.4-.2,33.5,7.5,9.8,7.5,6.3,23,6.3,23,0,0,3.1,102.5,2.2,212.4-.7,84.2-3.3,172.6-4.9,220.3,8,.3,15.9.4,24,.4s20.2-.3,30.3-.7c-1.6-47.8-4.2-136-4.9-220h0Z"/>
        <path class="cls-1" d="M901.5,358.9c-77.7-9.4-154-10.3-154-10.3,0,0-49.1-6.6-65,13.3-15.9,19.9-7.9,49.1-7.9,49.1,0,0,15.8,88.5,37.2,179.2,12.9,54.6,27.6,109.8,37.6,146,186.5-42.5,320.2-157.5,320.2-292.7s-3-39.6-8.7-58.6c-30.1-6-95.3-18.3-159.3-26h0Z"/>
      </g>
    </g>
  </g>
</svg>